# Blender v3.0.0 Alpha OBJ File: ''
# www.blender.org
mtllib RUINSSMALLSTUMP1.mtl
o Cube_Cube.001
v 0.502182 -1.835271 0.284101
v 0.546061 -1.385635 0.298216
v 0.502182 -1.835271 -0.284102
v 0.546061 -1.385635 -0.298216
v 1.006954 -1.840708 0.284101
v 0.950390 -1.380198 0.298216
v 1.006954 -1.840708 -0.284102
v 0.950390 -1.380198 -0.298216
v 0.528169 -1.385876 0.316110
v 0.528169 -1.385876 -0.316110
v 0.968282 -1.379958 -0.316110
v 0.968282 -1.379958 0.316110
v 0.552287 -1.331239 0.312826
v 0.552287 -1.331239 -0.312827
v 0.940645 -1.325410 -0.312827
v 0.940645 -1.325410 0.312826
vt 0.369518 0.138457
vt 0.367926 0.214843
vt 0.435212 0.214843
vt 0.433619 0.138457
vt 0.566041 0.112174
vt 0.572558 0.212729
vt 0.632604 0.213945
vt 0.641004 0.110958
vt 0.433619 0.137534
vt 0.435212 0.215767
vt 0.367926 0.215767
vt 0.369518 0.137534
vt 0.641004 0.110958
vt 0.632604 0.213945
vt 0.572558 0.212729
vt 0.566041 0.112174
vt 0.373683 0.246560
vt 0.430628 0.246560
vt 0.430628 0.150032
vt 0.373683 0.150032
vt 0.424246 0.147634
vt 0.424246 0.248958
vt 0.426265 0.251998
vt 0.426265 0.144594
vt 0.569900 0.212675
vt 0.635261 0.213999
vt 0.635261 0.213999
vt 0.569900 0.212675
vt 0.378633 0.248958
vt 0.378633 0.147634
vt 0.376614 0.144594
vt 0.376614 0.251998
vt 0.437230 0.214802
vt 0.365907 0.214802
vt 0.366278 0.224084
vt 0.436860 0.224084
vt 0.423147 0.251440
vt 0.379335 0.251440
vt 0.379335 0.145152
vt 0.423147 0.145152
vt 0.631157 0.226197
vt 0.573482 0.224894
vt 0.573482 0.224894
vt 0.631157 0.226197
vt 0.365907 0.215808
vt 0.437230 0.215808
vt 0.436860 0.225074
vt 0.366278 0.225074
vn -0.9953 0.0971 0.0000
vn -0.0000 -0.0310 -0.9995
vn 0.9925 0.1219 0.0000
vn 0.0000 -0.0310 0.9995
vn -0.0108 -0.9999 0.0000
vn 0.0134 -0.9999 0.0000
vn -0.9148 0.4038 0.0000
vn -0.0150 0.9999 0.0000
vn -0.0009 0.0600 0.9982
vn -0.0009 0.0600 -0.9982
vn 0.8920 0.4520 0.0000
usemtl Material.001
s off
f 1/1/1 2/2/1 4/3/1 3/4/1
f 3/5/2 4/6/2 8/7/2 7/8/2
f 7/9/3 8/10/3 6/11/3 5/12/3
f 5/13/4 6/14/4 2/15/4 1/16/4
f 3/17/5 7/18/5 5/19/5 1/20/5
f 6/21/6 8/22/6 11/23/6 12/24/6
f 8/7/6 4/6/6 10/25/6 11/26/6
f 2/15/6 6/14/6 12/27/6 9/28/6
f 4/29/6 2/30/6 9/31/6 10/32/6
f 10/33/7 9/34/7 13/35/7 14/36/7
f 15/37/8 14/38/8 13/39/8 16/40/8
f 9/28/9 12/27/9 16/41/9 13/42/9
f 11/26/10 10/25/10 14/43/10 15/44/10
f 12/45/11 11/46/11 15/47/11 16/48/11
