# Blender v3.0.0 Alpha OBJ File: ''
# www.blender.org
mtllib RUINS1.mtl
o Cube_Cube.001
v 0.502182 -1.835271 0.284101
v 0.546061 -1.385635 0.298216
v 0.502182 -1.835271 -0.284102
v 0.546061 -1.385635 -0.298216
v 1.006954 -1.840708 0.284101
v 0.950390 -1.380198 0.298216
v 1.006954 -1.840708 -0.284102
v 0.950390 -1.380198 -0.298216
v 0.528169 -1.385876 0.316110
v 0.528169 -1.385876 -0.316110
v 0.968282 -1.379958 -0.316110
v 0.968282 -1.379958 0.316110
v 0.552287 -1.331239 0.312826
v 0.552287 -1.331239 -0.312827
v 0.940645 -1.325410 -0.312827
v 0.940645 -1.325410 0.312826
vt 0.369518 0.138457
vt 0.367926 0.214843
vt 0.435212 0.214843
vt 0.433619 0.138457
vt 0.566041 0.112174
vt 0.572558 0.212729
vt 0.632604 0.213945
vt 0.641004 0.110958
vt 0.433619 0.137534
vt 0.435212 0.215767
vt 0.367926 0.215767
vt 0.369518 0.137534
vt 0.641004 0.110958
vt 0.632604 0.213945
vt 0.572558 0.212729
vt 0.566041 0.112174
vt 0.373683 0.246560
vt 0.430628 0.246560
vt 0.430628 0.150032
vt 0.373683 0.150032
vt 0.424246 0.147634
vt 0.424246 0.248958
vt 0.426265 0.251998
vt 0.426265 0.144594
vt 0.569900 0.212675
vt 0.635261 0.213999
vt 0.635261 0.213999
vt 0.569900 0.212675
vt 0.378633 0.248958
vt 0.378633 0.147634
vt 0.376614 0.144594
vt 0.376614 0.251998
vt 0.437230 0.214802
vt 0.365907 0.214802
vt 0.366278 0.224084
vt 0.436860 0.224084
vt 0.423147 0.251440
vt 0.379335 0.251440
vt 0.379335 0.145152
vt 0.423147 0.145152
vt 0.631157 0.226197
vt 0.573482 0.224894
vt 0.573482 0.224894
vt 0.631157 0.226197
vt 0.365907 0.215808
vt 0.437230 0.215808
vt 0.436860 0.225074
vt 0.366278 0.225074
vn -0.9953 0.0971 0.0000
vn -0.0000 -0.0310 -0.9995
vn 0.9925 0.1219 0.0000
vn 0.0000 -0.0310 0.9995
vn -0.0108 -0.9999 0.0000
vn 0.0134 -0.9999 0.0000
vn -0.9148 0.4038 0.0000
vn -0.0150 0.9999 0.0000
vn -0.0009 0.0600 0.9982
vn -0.0009 0.0600 -0.9982
vn 0.8920 0.4520 0.0000
usemtl Material.001
s off
f 1/1/1 2/2/1 4/3/1 3/4/1
f 3/5/2 4/6/2 8/7/2 7/8/2
f 7/9/3 8/10/3 6/11/3 5/12/3
f 5/13/4 6/14/4 2/15/4 1/16/4
f 3/17/5 7/18/5 5/19/5 1/20/5
f 6/21/6 8/22/6 11/23/6 12/24/6
f 8/7/6 4/6/6 10/25/6 11/26/6
f 2/15/6 6/14/6 12/27/6 9/28/6
f 4/29/6 2/30/6 9/31/6 10/32/6
f 10/33/7 9/34/7 13/35/7 14/36/7
f 15/37/8 14/38/8 13/39/8 16/40/8
f 9/28/9 12/27/9 16/41/9 13/42/9
f 11/26/10 10/25/10 14/43/10 15/44/10
f 12/45/11 11/46/11 15/47/11 16/48/11
o Cube.001_Cube.002
v -0.784059 -1.760349 0.325607
v -0.761286 -1.343492 0.253764
v -1.006455 -1.760349 -0.103211
v -0.934613 -1.343492 -0.080438
v -0.355242 -1.760349 0.103210
v -0.427084 -1.343492 0.080438
v -0.577638 -1.760349 -0.325607
v -0.600410 -1.343492 -0.253764
v -0.761286 -1.343492 0.253764
v -0.934613 -1.343492 -0.080438
v -0.427084 -1.343492 0.080438
v -0.600410 -1.343492 -0.253764
v -0.761286 -1.224192 0.253764
v -0.934613 -1.224192 -0.080438
v -0.427084 -1.224192 0.080438
v -0.600410 -1.224192 -0.253764
v -0.412738 -1.272996 0.084985
v -0.765834 -1.272996 0.268110
v -0.948959 -1.272996 -0.084986
v -0.595863 -1.272996 -0.268111
v -0.737072 -0.641746 0.177373
v -0.858221 -0.564565 -0.056224
v -0.624625 -0.596970 -0.177373
v -0.503475 -0.596970 0.056223
v -0.675185 -0.575837 0.112675
v -0.752144 -0.575837 -0.035716
v -0.603754 -0.575837 -0.112675
v -0.526794 -0.575837 0.035715
v -0.665640 0.130750 0.082563
v -0.722032 0.130750 -0.026171
v -0.613298 0.054969 -0.082563
v -0.556906 0.130750 0.026171
v -0.604998 -0.271458 -0.108749
v -0.530720 -0.271458 0.034471
v -0.673940 -0.271458 0.108749
v -0.748218 -0.271458 -0.034471
vt 0.391721 0.143866
vt 0.394645 0.224466
vt 0.372391 0.224466
vt 0.363166 0.143866
vt 0.415301 0.224466
vt 0.418225 0.143866
vt 0.437556 0.224466
vt 0.446780 0.143866
vt 0.394645 0.224466
vt 0.372391 0.224466
vt 0.394061 0.238096
vt 0.439398 0.238096
vt 0.437556 0.247533
vt 0.394645 0.247533
vt 0.437556 0.224466
vt 0.415301 0.224466
vt 0.415301 0.247533
vt 0.412192 0.368807
vt 0.427747 0.368807
vt 0.415885 0.238096
vt 0.370549 0.238096
vt 0.372391 0.247533
vt 0.382199 0.375072
vt 0.395819 0.372893
vt 0.414872 0.372893
vt 0.397754 0.360149
vt 0.424249 0.431745
vt 0.414712 0.431745
vt 0.413646 0.494860
vt 0.420887 0.509512
vt 0.424753 0.372893
vt 0.405700 0.372893
vt 0.399685 0.509512
vt 0.406926 0.509512
vt 0.396323 0.431745
vt 0.405860 0.431745
vn -0.8805 0.1268 0.4567
vn -0.4567 0.1268 -0.8805
vn 0.8805 0.1268 -0.4567
vn 0.4567 0.1268 0.8805
vn 0.0000 -1.0000 -0.0000
vn 0.0000 0.0000 1.0000
vn 0.4498 0.2130 0.8673
vn 0.8841 0.0900 -0.4585
vn -0.4498 0.2130 -0.8673
vn 0.8673 0.2130 -0.4498
vn -0.8673 0.2130 0.4498
vn -0.8778 -0.1493 0.4552
vn 0.8778 -0.1493 -0.4552
vn -0.4552 -0.1493 -0.8778
vn 0.4552 -0.1493 0.8778
vn 0.0139 0.9907 -0.1353
vn -0.8789 0.0909 0.4682
vn 0.4526 0.0933 0.8868
vn -0.4547 0.0877 -0.8863
vn 0.8798 0.0532 -0.4723
vn 0.7835 0.4702 -0.4063
vn -0.2220 0.9270 0.3024
vn 0.3170 0.5880 0.7442
vn 0.1211 0.9162 -0.3821
vn -0.8867 0.0482 0.4599
vn 0.4599 0.0482 0.8867
vn -0.4471 0.0532 -0.8929
vn -0.4604 0.0096 -0.8877
vn 0.4604 0.0096 0.8877
vn -0.8877 0.0096 0.4604
vn 0.8877 0.0096 -0.4604
usemtl Material.001
s off
f 17/49/12 18/50/12 20/51/12 19/52/12
f 19/52/13 20/51/13 24/53/13 23/54/13
f 23/54/14 24/53/14 22/55/14 21/56/14
f 21/56/15 22/55/15 18/50/15 17/49/15
f 19/52/16 23/54/16 21/56/16 17/49/16
f 20/51/17 18/50/17 25/57/17 26/58/17
f 34/59/18 33/60/18 31/61/18 29/62/18
f 18/50/17 22/55/17 27/63/17 25/57/17
f 24/53/17 20/51/17 26/58/17 28/64/17
f 22/55/17 24/53/17 28/64/17 27/63/17
f 31/61/19 32/65/19 39/66/19 40/67/19
f 36/68/20 35/69/20 30/70/20 32/65/20
f 33/60/21 36/68/21 32/65/21 31/61/21
f 35/69/22 34/59/22 29/62/22 30/70/22
f 26/58/23 25/57/23 34/59/23 35/69/23
f 27/63/24 28/64/24 36/68/24 33/60/24
f 28/64/25 26/58/25 35/69/25 36/68/25
f 25/57/26 27/63/26 33/60/26 34/59/26
f 39/66/27 38/71/27 42/72/27 43/73/27
f 30/70/28 29/62/28 37/74/28 38/71/28
f 29/62/29 31/61/29 40/67/29 37/74/29
f 32/65/30 30/70/30 38/71/30 39/66/30
f 50/75/31 49/76/31 47/77/31 48/78/31
f 40/67/32 39/66/32 43/73/32 44/79/32
f 38/71/33 37/74/33 41/80/33 42/72/33
f 37/74/34 40/67/34 44/79/34 41/80/34
f 47/77/35 46/81/35 45/82/35 48/78/35
f 52/83/36 51/84/36 45/82/36 46/81/36
f 51/84/37 50/75/37 48/78/37 45/82/37
f 49/76/38 52/83/38 46/81/38 47/77/38
f 43/73/39 42/72/39 52/83/39 49/76/39
f 41/80/40 44/79/40 50/75/40 51/84/40
f 42/72/41 41/80/41 51/84/41 52/83/41
f 44/79/42 43/73/42 49/76/42 50/75/42
o Cube.002_Cube.003
v -2.149791 -1.560027 0.230265
v -2.119604 -1.272951 0.200812
v -2.321203 -1.560027 -0.081486
v -2.280161 -1.272951 -0.091197
v -1.892023 -1.533458 0.077988
v -1.921648 -1.270983 0.091968
v -2.044254 -1.562232 -0.233764
v -2.082205 -1.270983 -0.200041
v -2.123547 -1.273038 0.214389
v -2.293738 -1.273038 -0.095141
v -2.078262 -1.270896 -0.213618
v -1.908071 -1.270896 0.095912
v -2.113162 -1.174894 0.212537
v -2.286611 -1.174894 -0.102918
v -2.090801 -1.172721 -0.210582
v -1.917351 -1.172721 0.104873
v -2.111743 -1.155559 0.182699
v -2.260656 -1.155559 -0.088131
v -2.092546 -1.153694 -0.180564
v -1.943633 -1.153694 0.090265
v -2.115582 -0.704971 0.184809
v -2.226130 -0.719358 -0.086020
v -2.096385 -0.703106 -0.178453
v -1.957063 -0.779835 0.092376
vt 0.201810 0.164396
vt 0.206613 0.233178
vt 0.181067 0.233178
vt 0.174537 0.164396
vt 0.212563 0.233649
vt 0.218602 0.163868
vt 0.238109 0.233649
vt 0.242823 0.170762
vt 0.213191 0.233670
vt 0.240269 0.233670
vt 0.178907 0.233157
vt 0.205986 0.233157
vt 0.207638 0.256672
vt 0.180041 0.256672
vt 0.207864 0.261304
vt 0.184171 0.261304
vt 0.238793 0.257193
vt 0.211196 0.257193
vt 0.234611 0.261751
vt 0.232474 0.351326
vt 0.207253 0.369263
vt 0.210918 0.261751
vt 0.210307 0.369710
vt 0.189664 0.365816
vn -0.8676 0.1402 0.4771
vn -0.4814 0.0389 -0.8756
vn 0.8755 0.1465 -0.4605
vn 0.4959 0.0239 0.8681
vn 0.0554 -0.9983 0.0173
vn 0.0076 -1.0000 -0.0042
vn -0.8718 0.1013 0.4793
vn -0.6816 0.6284 0.3748
vn 0.4818 -0.0344 0.8756
vn -0.4812 -0.0344 -0.8759
vn 0.8693 0.1258 -0.4780
vn 0.4935 0.0059 0.8697
vn 0.2831 0.7987 0.5310
vn -0.2967 0.7987 -0.5235
vn 0.6708 0.6434 -0.3688
vn 0.2091 0.9778 0.0161
vn -0.5282 0.0223 -0.8488
vn 0.8838 0.0209 -0.4673
vn -0.9018 0.0292 0.4312
usemtl Material.001
s off
f 53/85/43 54/86/43 56/87/43 55/88/43
f 55/88/44 56/87/44 60/89/44 59/90/44
f 59/90/45 60/89/45 58/91/45 57/92/45
f 57/92/46 58/91/46 54/86/46 53/85/46
f 55/88/47 59/90/47 57/92/47 53/85/47
f 58/91/48 60/89/48 63/93/48 64/94/48
f 60/89/48 56/87/48 62/95/48 63/93/48
f 54/86/48 58/91/48 64/94/48 61/96/48
f 56/87/48 54/86/48 61/96/48 62/95/48
f 62/95/49 61/96/49 65/97/49 66/98/49
f 66/98/50 65/97/50 69/99/50 70/100/50
f 61/96/51 64/94/51 68/101/51 65/97/51
f 63/93/52 62/95/52 66/98/52 67/102/52
f 64/94/53 63/93/53 67/102/53 68/101/53
f 69/99/54 72/103/54 76/104/54 73/105/54
f 65/97/55 68/101/55 72/103/55 69/99/55
f 67/102/56 66/98/56 70/100/56 71/106/56
f 68/101/57 67/102/57 71/106/57 72/103/57
f 75/107/58 74/108/58 73/105/58 76/104/58
f 71/106/59 70/100/59 74/108/59 75/107/59
f 72/103/60 71/106/60 75/107/60 76/104/60
f 70/100/61 69/99/61 73/105/61 74/108/61
o Cube.003_Cube.004
v -3.269765 -1.832713 0.154014
v -3.298944 -1.598005 0.173191
v -3.400088 -1.832713 -0.044287
v -3.429268 -1.598005 -0.025110
v -2.859151 -1.781298 0.025109
v -2.888331 -1.670323 0.044286
v -2.989474 -1.781298 -0.173191
v -3.051650 -1.554839 -0.154014
vt 0.050623 0.122563
vt 0.046787 0.169016
vt 0.029659 0.169016
vt 0.033494 0.122563
vt 0.079290 0.177560
vt 0.087461 0.132739
vt 0.100755 0.154703
vt 0.104590 0.132739
vn -0.8266 -0.1472 0.5432
vn -0.3127 0.0170 -0.9497
vn 0.8090 0.2779 -0.5180
vn 0.2978 -0.0555 0.9530
vn 0.1030 -0.9924 -0.0677
vn 0.1036 0.9729 0.2066
usemtl Material.001
s off
f 77/109/62 78/110/62 80/111/62 79/112/62
f 79/112/63 80/111/63 84/113/63 83/114/63
f 83/114/64 84/113/64 82/115/64 81/116/64
f 81/116/65 82/115/65 78/110/65 77/109/65
f 79/112/66 83/114/66 81/116/66 77/109/66
f 84/113/67 80/111/67 78/110/67 82/115/67
