# Blender v3.0.0 Alpha OBJ File: ''
# www.blender.org
mtllib RUINSSMALLSTUMP2.mtl
o Cube.003_Cube.004
v -3.269765 -1.832713 0.154014
v -3.298944 -1.598005 0.173191
v -3.400088 -1.832713 -0.044287
v -3.429268 -1.598005 -0.025110
v -2.859151 -1.781298 0.025109
v -2.888331 -1.670323 0.044286
v -2.989474 -1.781298 -0.173191
v -3.051650 -1.554839 -0.154014
vt 0.050623 0.122563
vt 0.046787 0.169016
vt 0.029659 0.169016
vt 0.033494 0.122563
vt 0.079290 0.177560
vt 0.087461 0.132739
vt 0.100755 0.154703
vt 0.104590 0.132739
vn -0.8266 -0.1472 0.5432
vn -0.3127 0.0170 -0.9497
vn 0.8090 0.2779 -0.5180
vn 0.2978 -0.0555 0.9530
vn 0.1030 -0.9924 -0.0677
vn 0.1036 0.9729 0.2066
usemtl Material.001
s off
f 1/1/1 2/2/1 4/3/1 3/4/1
f 3/4/2 4/3/2 8/5/2 7/6/2
f 7/6/3 8/5/3 6/7/3 5/8/3
f 5/8/4 6/7/4 2/2/4 1/1/4
f 3/4/5 7/6/5 5/8/5 1/1/5
f 8/5/6 4/3/6 2/2/6 6/7/6
