# Blender v3.0.0 Alpha OBJ File: ''
# www.blender.org
mtllib shotgun.mtl
o Cube_Cube.001
v -0.614548 0.134367 0.122503
v 1.352697 1.292703 0.079182
v -0.604595 0.085418 -0.029532
v -0.745823 0.354713 -0.029532
v -0.738078 0.010039 0.117187
v -0.906291 0.213382 0.117187
v -0.738078 0.010039 -0.024210
v -0.906291 0.213382 -0.024210
v -0.991958 -0.203153 0.103284
v -1.178536 -0.064135 0.053108
v -0.991958 -0.203153 -0.038114
v -1.160806 -0.020262 -0.024211
v -1.028336 -0.556766 0.100010
v -1.256596 -0.575819 0.100010
v -1.028335 -0.556766 -0.034841
v -1.256596 -0.575819 -0.034841
v -1.260941 -0.324420 -0.036253
v -1.260941 -0.324420 0.101422
v -1.012641 -0.404207 0.101422
v -1.012641 -0.404207 -0.036253
v -1.019899 -0.556062 0.104994
v -1.265033 -0.576523 0.104994
v -1.019899 -0.556062 -0.039824
v -1.265033 -0.576523 -0.039824
v -1.016600 -0.595590 0.104994
v -1.261733 -0.616051 0.104994
v -1.084326 -0.675652 0.000837
v -1.016600 -0.595590 -0.039824
v -1.261733 -0.616051 -0.039824
v -1.181671 -0.683777 0.000837
v -0.777793 -0.022815 0.117187
v -0.805992 0.014061 0.117187
v -0.580304 0.154530 0.121749
v -0.562172 0.165206 0.121350
v -0.601040 0.217768 0.121540
v -0.618848 0.203127 0.121969
v -0.716881 0.022009 0.118032
v -0.765894 0.043664 0.117187
v -0.700997 0.298054 0.122513
v -0.736687 0.354022 0.059957
v -0.779365 0.314465 0.121031
v 1.290721 1.387877 0.016957
v 1.332223 1.331470 0.079184
v -0.614548 0.134367 -0.122503
v 1.352697 1.292703 -0.079182
v -0.604595 0.085418 0.029532
v -0.745823 0.354713 0.029532
v 1.348130 1.272322 0.000000
v 1.287397 1.388128 0.000000
v -0.738078 0.010039 -0.117187
v -0.906291 0.213382 -0.117187
v -0.738078 0.010039 0.024211
v -0.906291 0.213382 0.024211
v -0.991958 -0.203153 -0.103284
v -1.178536 -0.064135 -0.053108
v -0.991958 -0.203153 0.038114
v -1.160806 -0.020262 0.024211
v -1.028336 -0.556766 -0.100010
v -1.256596 -0.575819 -0.100010
v -1.028335 -0.556766 0.034841
v -1.256596 -0.575819 0.034841
v -1.260941 -0.324420 0.036253
v -1.260941 -0.324420 -0.101422
v -1.012641 -0.404207 -0.101422
v -1.012641 -0.404207 0.036253
v -1.019899 -0.556062 -0.104994
v -1.265033 -0.576523 -0.104994
v -1.019899 -0.556062 0.039825
v -1.265033 -0.576523 0.039825
v -0.836852 -0.011429 0.000000
v -1.016600 -0.595590 -0.104994
v -1.084326 -0.675652 0.000000
v -1.261733 -0.616051 -0.104994
v -1.181671 -0.683777 0.000000
v -1.084326 -0.675652 -0.000836
v -1.016600 -0.595590 0.039825
v -1.261733 -0.616051 0.039825
v -1.181671 -0.683777 -0.000836
v -0.777793 -0.022815 -0.117187
v -0.750486 -0.058523 0.000000
v -0.702097 -0.082717 0.000000
v -0.635206 -0.081294 0.000000
v -0.575431 -0.058522 0.000000
v -0.535581 -0.018673 0.000000
v -0.517079 0.022601 0.000000
v -0.525618 0.078106 0.000000
v -0.542697 0.068144 0.000000
v -0.546967 0.015485 0.000000
v -0.569738 -0.028635 0.000000
v -0.619551 -0.057099 0.000000
v -0.672210 -0.067062 0.000000
v -0.719176 -0.052830 0.000000
v -0.750486 -0.031481 0.000000
v -0.756179 -0.008710 0.000000
v -0.805992 0.014061 -0.117187
v -0.580304 0.154530 -0.121749
v -0.562172 0.165206 -0.121349
v -0.601040 0.217768 -0.121540
v -0.618848 0.203127 -0.121968
v -0.716881 0.022009 -0.118032
v -0.765894 0.043664 -0.117187
v -0.680302 0.017746 0.000000
v -0.663143 -0.044026 0.000000
v -0.641180 -0.044712 0.000000
v -0.659711 0.047259 0.000000
v -0.705010 0.020491 0.000000
v -0.700997 0.298054 -0.122513
v -0.736687 0.354022 -0.059957
v -0.779365 0.314465 -0.121031
v 1.290721 1.387877 -0.016956
v 1.332223 1.331470 -0.079184
vt 0.238140 0.531005
vt 0.142435 0.425192
vt 0.149511 0.422765
vt 0.239554 0.530629
vt 0.322281 0.517793
vt 0.805649 0.725233
vt 0.806779 0.728795
vt 0.332782 0.531738
vt 0.328294 0.529872
vt 0.319817 0.526348
vt 0.199251 0.445787
vt 0.195304 0.453371
vt 0.183226 0.458108
vt 0.169803 0.443502
vt 0.187620 0.434733
vt 0.512139 0.898741
vt 0.512139 0.929976
vt 0.505662 0.929908
vt 0.481890 0.914694
vt 0.481891 0.904238
vt 0.247600 0.540158
vt 0.289239 0.504619
vt 0.225507 0.467395
vt 0.184599 0.499323
vt 0.294486 0.506711
vt 0.289239 0.504619
vt 0.287322 0.564859
vt 0.801711 0.735570
vt 0.298418 0.554956
vt 0.318752 0.538366
vt 0.323160 0.540925
vt 0.473395 0.468067
vt 0.525988 0.468067
vt 0.525449 0.400260
vt 0.473935 0.400260
vt 0.282354 0.510496
vt 0.247600 0.540158
vt 0.272428 0.505322
vt 0.279408 0.498877
vt 0.221332 0.479560
vt 0.203955 0.487714
vt 0.183166 0.465630
vt 0.200543 0.457475
vt 0.225507 0.467395
vt 0.343875 0.481596
vt 0.343875 0.517968
vt 0.340652 0.519313
vt 0.340652 0.480252
vt 0.327251 0.255483
vt 0.281172 0.273384
vt 0.253549 0.237150
vt 0.298683 0.219616
vt 0.158924 0.446201
vt 0.206116 0.432256
vt 0.202231 0.405593
vt 0.160000 0.402263
vt 0.206116 0.433031
vt 0.158924 0.446201
vt 0.160000 0.402263
vt 0.202231 0.406368
vt 0.212333 0.469720
vt 0.198430 0.495417
vt 0.207214 0.434581
vt 0.220387 0.432256
vt 0.364899 0.302752
vt 0.317575 0.321137
vt 0.203747 0.489861
vt 0.218583 0.482858
vt 0.198510 0.459728
vt 0.184064 0.466547
vt 0.157911 0.402140
vt 0.218590 0.405716
vt 0.219407 0.398807
vt 0.158728 0.395231
vt 0.431073 0.517968
vt 0.431073 0.481596
vt 0.434296 0.480252
vt 0.434296 0.519313
vt 0.216502 0.405593
vt 0.216502 0.405593
vt 0.157911 0.402140
vt 0.218590 0.405716
vt 0.158728 0.395231
vt 0.219407 0.398807
vt 0.409684 0.508571
vt 0.372497 0.508571
vt 0.372497 0.508345
vt 0.409684 0.508345
vt 0.472031 0.400070
vt 0.527353 0.400070
vt 0.527353 0.389408
vt 0.472031 0.389408
vt 0.527353 0.394927
vt 0.472031 0.394927
vt 0.512139 0.373333
vt 0.511820 0.373333
vt 0.178546 0.383394
vt 0.202643 0.384815
vt 0.341913 0.480252
vt 0.341913 0.519313
vt 0.202643 0.384815
vt 0.178546 0.383394
vt 0.527353 0.405588
vt 0.472031 0.405588
vt 0.184599 0.499323
vt 0.289969 0.563982
vt 0.279019 0.557825
vt 0.792412 0.744533
vt 0.291164 0.564654
vt 0.239554 0.530629
vt 0.149511 0.422765
vt 0.142435 0.425192
vt 0.322281 0.517793
vt 0.319817 0.526348
vt 0.328294 0.529872
vt 0.332782 0.531738
vt 0.806779 0.728795
vt 0.199251 0.445787
vt 0.187620 0.434733
vt 0.169803 0.443502
vt 0.183226 0.458108
vt 0.195304 0.453371
vt 0.481891 0.904238
vt 0.481890 0.914694
vt 0.505662 0.929908
vt 0.247600 0.540158
vt 0.184599 0.499323
vt 0.225507 0.467395
vt 0.289239 0.504619
vt 0.289239 0.504619
vt 0.294486 0.506711
vt 0.287322 0.564859
vt 0.323160 0.540925
vt 0.318752 0.538366
vt 0.298418 0.554956
vt 0.801711 0.735570
vt 0.473395 0.468067
vt 0.473935 0.400260
vt 0.525449 0.400260
vt 0.525988 0.468067
vt 0.279408 0.498877
vt 0.272428 0.505322
vt 0.247600 0.540158
vt 0.282354 0.510496
vt 0.221332 0.479560
vt 0.200543 0.457475
vt 0.183166 0.465630
vt 0.203955 0.487714
vt 0.225507 0.467395
vt 0.343875 0.481596
vt 0.340652 0.480252
vt 0.340652 0.519313
vt 0.343875 0.517968
vt 0.327251 0.255483
vt 0.298683 0.219616
vt 0.253549 0.237150
vt 0.281172 0.273384
vt 0.158924 0.446201
vt 0.160000 0.402263
vt 0.202231 0.405593
vt 0.206116 0.432256
vt 0.206116 0.433031
vt 0.202231 0.406368
vt 0.160000 0.402263
vt 0.158924 0.446201
vt 0.212333 0.469720
vt 0.207214 0.434581
vt 0.198430 0.495417
vt 0.220387 0.432256
vt 0.364899 0.302752
vt 0.317575 0.321137
vt 0.203747 0.489861
vt 0.184064 0.466547
vt 0.198510 0.459728
vt 0.218583 0.482858
vt 0.157911 0.402140
vt 0.158728 0.395231
vt 0.219407 0.398807
vt 0.218590 0.405716
vt 0.431073 0.517968
vt 0.434296 0.519313
vt 0.434296 0.480252
vt 0.431073 0.481596
vt 0.216502 0.405593
vt 0.216502 0.405593
vt 0.218590 0.405716
vt 0.157911 0.402140
vt 0.219407 0.398807
vt 0.158728 0.395231
vt 0.409684 0.508345
vt 0.372497 0.508345
vt 0.472031 0.400070
vt 0.472031 0.389408
vt 0.527353 0.389408
vt 0.527353 0.400070
vt 0.527353 0.394927
vt 0.511820 0.373333
vt 0.472031 0.394927
vt 0.341913 0.480252
vt 0.341913 0.519313
vt 0.178546 0.383394
vt 0.202643 0.384815
vt 0.527353 0.405588
vt 0.472031 0.405588
vt 0.264789 0.500867
vt 0.284758 0.501342
vt 0.286167 0.497362
vt 0.293918 0.493631
vt 0.305544 0.491144
vt 0.318579 0.492885
vt 0.330909 0.497860
vt 0.336546 0.505571
vt 0.337602 0.514774
vt 0.341830 0.516515
vt 0.343944 0.506814
vt 0.339364 0.499601
vt 0.329500 0.492636
vt 0.314703 0.488656
vt 0.298145 0.488408
vt 0.286167 0.492636
vt 0.184599 0.499323
vt 0.308637 0.511124
vt 0.313225 0.495050
vt 0.307788 0.495170
vt 0.303540 0.505966
vt 0.297424 0.506446
vt 0.279019 0.557825
vt 0.289969 0.563982
vt 0.792412 0.744533
vt 0.291164 0.564654
vn -0.4527 0.8896 0.0609
vn 0.4964 -0.8282 0.2599
vn -0.6424 0.7656 0.0349
vn 0.8728 0.4587 -0.1670
vn -0.0024 0.0339 -0.9994
vn 0.6092 -0.7827 0.1272
vn -0.0244 -0.0160 -0.9996
vn 0.0168 0.0088 0.9998
vn -0.9999 -0.0173 0.0000
vn -0.0000 0.0000 1.0000
vn -0.6992 0.7098 0.0857
vn 0.6430 -0.7658 0.0013
vn -0.0832 0.9965 0.0000
vn 0.9948 -0.1023 0.0000
vn -0.0009 -0.0070 -1.0000
vn -0.0009 -0.0070 1.0000
vn -0.0577 0.1128 0.9919
vn -0.0179 0.0244 -0.9995
vn -0.9517 0.3067 -0.0159
vn 0.0000 0.0000 -1.0000
vn -0.9965 -0.0832 0.0000
vn 0.7635 -0.6458 -0.0000
vn 0.0679 -0.8140 0.5769
vn -0.6458 -0.7635 0.0000
vn 0.0400 -0.4791 -0.8768
vn 0.9965 0.0832 0.0000
vn -0.1597 -0.0005 0.9872
vn -0.0272 -0.0225 0.9994
vn 0.1514 0.7780 0.6097
vn -0.2958 0.6116 0.7338
vn -0.0224 -0.0150 0.9996
vn -0.4527 0.8896 -0.0609
vn 0.4964 -0.8282 -0.2599
vn -0.6424 0.7656 -0.0349
vn 0.8728 0.4587 0.1670
vn -0.0024 0.0339 0.9994
vn 0.6092 -0.7827 -0.1272
vn -0.0244 -0.0160 0.9996
vn 0.0168 0.0088 -0.9998
vn -0.6992 0.7098 -0.0857
vn 0.6430 -0.7658 -0.0013
vn -0.0577 0.1128 -0.9919
vn -0.0179 0.0244 0.9995
vn -0.9517 0.3067 0.0159
vn 0.0679 -0.8140 -0.5769
vn 0.0400 -0.4791 0.8768
vn -0.1597 -0.0005 -0.9872
vn -0.0272 -0.0225 -0.9994
vn 0.1514 0.7780 -0.6097
vn -0.2958 0.6116 -0.7338
vn -0.0224 -0.0150 -0.9996
usemtl Material.001
s off
f 49/1/1 4/2/1 40/3/1 42/4/1
f 3/5/2 48/6/2 2/7/2 34/8/2 33/9/2 1/10/2
f 41/11/3 40/12/3 4/13/3 8/14/3 6/15/3
f 48/16/4 49/17/4 42/18/4 43/19/4 2/20/4
f 8/21/5 7/22/5 11/23/5 12/24/5
f 3/5/6 1/10/6 37/25/6 5/26/6 7/22/6
f 4/27/7 3/5/7 7/22/7 8/21/7
f 2/7/8 43/28/8 39/29/8 1/10/8 33/9/8 36/30/8 35/31/8 34/8/8
f 18/32/9 17/33/9 16/34/9 14/35/9
f 5/26/10 38/36/10 6/37/10 32/38/10 31/39/10
f 6/40/11 8/41/11 12/42/11 10/43/11
f 7/22/12 5/26/12 31/39/12 9/44/12 11/23/12
f 14/45/13 16/46/13 24/47/13 22/48/13
f 20/49/14 19/50/14 13/51/14 15/52/14
f 17/53/15 20/54/15 15/55/15 16/56/15
f 19/57/16 18/58/16 14/59/16 13/60/16
f 9/61/17 10/62/17 18/58/17 19/63/17
f 12/24/18 11/23/18 20/64/18 17/53/18
f 11/65/14 9/66/14 19/50/14 20/49/14
f 10/67/19 12/68/19 17/69/19 18/70/19
f 24/71/20 23/72/20 28/73/20 29/74/20
f 15/75/13 13/76/13 21/77/13 23/78/13
f 16/56/13 15/79/13 23/72/13 24/71/13
f 13/80/13 14/59/13 22/81/13 21/82/13
f 21/82/10 22/81/10 26/83/10 25/84/10
f 72/85/13 74/86/13 30/87/13 27/88/13
f 22/89/21 24/90/21 29/91/21 26/92/21
f 28/93/22 25/94/22 72/95/22 27/96/22
f 25/84/23 26/83/23 74/97/23 72/98/23
f 26/99/24 29/100/24 30/87/24 74/86/24
f 29/74/25 28/73/25 27/101/25 30/102/25
f 23/103/26 21/104/26 25/94/26 28/93/26
f 31/39/27 32/38/27 6/37/27 10/105/27 9/44/27
f 34/8/8 35/31/8 36/30/8 33/9/8
f 37/25/28 38/36/28 5/26/28
f 39/29/29 40/106/29 41/107/29
f 42/108/30 40/109/30 39/29/30 43/28/30
f 1/10/31 39/29/31 41/107/31 6/37/31 38/36/31 37/25/31
f 49/1/32 110/110/32 108/111/32 47/112/32
f 46/113/33 44/114/33 96/115/33 97/116/33 45/117/33 48/6/33
f 109/118/34 51/119/34 53/120/34 47/121/34 108/122/34
f 48/16/35 45/123/35 111/124/35 110/125/35 49/17/35
f 53/126/36 57/127/36 56/128/36 52/129/36
f 46/113/37 52/129/37 50/130/37 100/131/37 44/114/37
f 47/132/38 53/126/38 52/129/38 46/113/38
f 45/117/39 97/116/39 98/133/39 99/134/39 96/115/39 44/114/39 107/135/39 111/136/39
f 63/137/9 59/138/9 61/139/9 62/140/9
f 50/130/20 79/141/20 95/142/20 51/143/20 101/144/20
f 51/145/40 55/146/40 57/147/40 53/148/40
f 52/129/41 56/128/41 54/149/41 79/141/41 50/130/41
f 59/150/13 67/151/13 69/152/13 61/153/13
f 65/154/14 60/155/14 58/156/14 64/157/14
f 62/158/16 61/159/16 60/160/16 65/161/16
f 64/162/15 58/163/15 59/164/15 63/165/15
f 54/166/42 64/167/42 63/165/42 55/168/42
f 57/127/43 62/158/43 65/169/43 56/128/43
f 56/170/14 65/154/14 64/157/14 54/171/14
f 55/172/44 63/173/44 62/174/44 57/175/44
f 69/176/10 77/177/10 76/178/10 68/179/10
f 60/180/13 68/181/13 66/182/13 58/183/13
f 61/159/13 69/176/13 68/179/13 60/184/13
f 58/185/13 66/186/13 67/187/13 59/164/13
f 66/186/20 71/188/20 73/189/20 67/187/20
f 72/85/13 75/190/13 78/191/13 74/86/13
f 67/192/21 73/193/21 77/194/21 69/195/21
f 76/196/22 75/197/22 72/95/22 71/198/22
f 71/188/45 72/98/45 74/97/45 73/189/45
f 73/199/24 74/86/24 78/191/24 77/200/24
f 77/177/46 78/201/46 75/202/46 76/178/46
f 68/203/26 76/196/26 71/198/26 66/204/26
f 70/205/20 94/206/20 93/207/20 92/208/20 91/209/20 90/210/20 89/211/20 88/212/20 87/213/20 86/214/20 85/215/20 84/216/20 83/217/20 82/218/20 81/219/20 80/220/20
f 79/141/47 54/149/47 55/221/47 51/143/47 95/142/47
f 97/116/39 96/115/39 99/134/39 98/133/39
f 100/131/48 50/130/48 101/144/48
f 105/222/20 104/223/20 103/224/20 102/225/20 106/226/20
f 107/135/49 109/227/49 108/228/49
f 110/229/50 111/136/50 107/135/50 108/230/50
f 44/114/51 100/131/51 101/144/51 51/143/51 109/227/51 107/135/51
