# Blender v3.0.0 Alpha OBJ File: ''
# www.blender.org
mtllib Weirdmanpc.mtl
o Cube
v -0.891579 0.826397 -1.000000
v -0.723998 -1.000000 -1.000000
v -0.788377 1.000000 1.000000
v -0.729488 -1.000000 1.000000
v -0.728110 -1.000000 0.027525
v -0.774691 1.000000 0.027525
v -0.848611 -1.817771 -1.194170
v -0.728110 -1.994617 0.027525
v -1.925011 -2.354250 -0.908163
v -1.409050 -2.302538 0.290530
v -2.480261 -2.919681 -0.739194
v -1.998452 -2.852022 0.697744
v -0.796218 0.000000 0.980321
v -1.000000 0.000000 -1.000000
v -0.864055 0.000000 0.027525
v -0.862627 0.314664 -0.084635
v -0.855131 -0.415084 0.010858
v -1.035240 0.409384 -0.374227
v -1.024220 -0.345835 -0.281733
v -0.939675 -0.476374 -0.135437
v -0.948934 0.469926 -0.229431
v -0.186408 -1.085608 -1.109404
v -0.202984 1.212018 1.143953
v -0.187822 -1.212018 1.300242
v -0.229555 1.021214 -1.106528
v -0.185620 -1.214364 0.170585
v -0.199460 1.220045 -0.235346
v -0.218493 -2.112396 -1.282613
v -0.189314 -2.204290 0.253614
v -0.495634 -2.701220 -1.307854
v -0.383929 -2.494956 0.665773
v -0.638595 -3.655052 -1.086503
v -0.518367 -3.697668 1.081951
v -0.257471 0.000000 -1.302629
v -0.156380 0.000000 1.261921
v -0.894317 -0.382908 -1.000000
v -0.812001 -0.382908 0.027525
v -0.770666 -0.382908 0.987856
v -0.168419 -0.464092 1.276594
v -0.230260 -0.415688 -1.228642
v -0.793710 0.319852 0.986615
v -0.965321 0.264325 -1.000000
v -0.835472 0.319852 0.027525
v -0.248542 0.326637 -1.239906
v -0.171287 0.387666 1.224188
v -0.141447 -0.249965 1.453911
v -0.129632 0.155486 1.358662
v -0.187008 -0.452060 1.504228
v 0.891579 0.826397 -1.000000
v 0.723998 -1.000000 -1.000000
v 0.788377 1.000000 1.000000
v 0.729488 -1.000000 1.000000
v 0.000000 -1.115293 -1.147340
v 0.000000 1.285535 1.193868
v 0.000000 -1.285535 1.404350
v 0.000000 1.088767 -1.143466
v 0.728110 -1.000000 0.027525
v 0.774691 1.000000 0.027525
v 0.000000 -1.288694 0.220190
v 0.000000 1.296345 -0.326496
v 0.000000 -2.214557 -1.313281
v 0.848611 -1.817771 -1.194170
v 0.728110 -1.994617 0.027525
v 0.000000 -2.276994 0.332010
v 0.000000 -2.821531 -1.446447
v 1.925011 -2.354250 -0.908163
v 1.409050 -2.302538 0.290530
v 0.000000 -2.561677 0.795888
v 0.000000 -3.910041 -1.206932
v 2.480261 -2.919681 -0.739194
v 1.998452 -2.852022 0.697744
v 0.000000 -3.990895 1.215174
v 0.796218 0.000000 0.980321
v 1.000000 0.000000 -1.000000
v 0.000000 0.000000 -1.407566
v 0.864055 0.000000 0.027525
v 0.862627 0.314664 -0.084635
v 0.855131 -0.415084 0.010858
v 1.035240 0.409384 -0.374227
v 1.024220 -0.345835 -0.281733
v 0.939675 -0.476374 -0.135437
v 0.948934 0.469926 -0.229431
v 0.186408 -1.085608 -1.109404
v 0.202984 1.212018 1.143953
v 0.187822 -1.212018 1.300242
v 0.229555 1.021214 -1.106528
v 0.185620 -1.214364 0.170585
v 0.199460 1.220045 -0.235346
v 0.218493 -2.112396 -1.282613
v 0.189314 -2.204290 0.253614
v 0.495634 -2.701220 -1.307854
v 0.383929 -2.494956 0.665773
v 0.638595 -3.655052 -1.086503
v 0.518367 -3.697668 1.081951
v 0.257471 0.000000 -1.302629
v 0.156380 0.000000 1.261921
v 0.894317 -0.382908 -1.000000
v 0.000000 -0.427055 -1.307923
v 0.000000 -0.492242 1.376714
v 0.812001 -0.382908 0.027525
v 0.770666 -0.382908 0.987856
v 0.168419 -0.464092 1.276594
v 0.230260 -0.415688 -1.228642
v 0.793710 0.319852 0.986615
v 0.965321 0.264325 -1.000000
v 0.000000 0.348244 -1.323093
v 0.000000 0.411181 1.306567
v 0.835472 0.319852 0.027525
v 0.248542 0.326637 -1.239906
v 0.171287 0.387666 1.224188
v 0.000000 0.179000 1.441041
v 0.000000 -0.249965 1.551555
v 0.141447 -0.249965 1.453911
v 0.129632 0.155486 1.358662
v 0.000000 -0.480210 1.604347
v 0.187008 -0.452060 1.504228
vt 0.156297 0.958608
vt 0.180047 0.820042
vt 0.313320 0.777404
vt 0.374333 0.868321
vt 0.430615 0.730599
vt 0.286952 0.667503
vt 0.159448 0.682711
vt 0.037072 0.820419
vt 0.005931 0.734888
vt 0.122575 0.366891
vt 0.165979 0.417837
vt 0.159374 0.442973
vt 0.105710 0.387548
vt 0.314167 0.157403
vt 0.490138 0.127816
vt 0.507730 0.198942
vt 0.360941 0.227297
vt 0.194737 0.209556
vt -0.117002 0.470826
vt 0.023602 0.008314
vt 0.156799 0.000234
vt 0.001905 0.939283
vt 0.760685 0.157551
vt 0.752420 0.003212
vt 0.820768 0.055648
vt 0.821604 0.121038
vt 0.785337 0.240478
vt 0.837542 0.221337
vt 0.363962 0.001213
vt 0.055835 0.224194
vt 0.038352 0.232533
vt -0.021726 0.119631
vt 0.001684 0.115485
vt 0.648486 0.051754
vt 0.673692 0.000133
vt 0.800811 0.019775
vt 0.753657 0.130895
vt 0.887158 0.235183
vt 0.999867 0.161871
vt 0.999867 0.714088
vt 0.902573 0.633399
vt 0.856819 0.100804
vt 0.935835 0.156239
vt 0.842046 0.066485
vt 0.246081 0.452035
vt 0.234860 0.575696
vt 0.147946 0.616583
vt 0.133503 0.529101
vt 0.086911 0.296333
vt 0.105357 0.338379
vt 0.084300 0.355457
vt 0.066437 0.309042
vt -0.009429 0.687746
vt -0.044361 0.615116
vt 0.424094 0.485425
vt 0.452106 0.562332
vt 0.519261 0.748884
vt 0.522719 0.910526
vt 0.499102 0.903658
vt 0.498606 0.774275
vt 0.542948 0.755842
vt 0.542948 0.880988
vt 0.474941 0.531644
vt 0.471406 0.632973
vt 0.144244 0.265546
vt 0.160654 0.299667
vt 0.855257 0.263064
vt 0.987767 0.180756
vt 0.704182 0.359817
vt 0.743752 0.394500
vt 0.761270 0.473480
vt 0.583625 0.212298
vt 0.110118 0.197760
vt 0.176172 -0.019525
vt 0.495281 -0.001868
vt 0.795450 0.266469
vt -0.012154 0.992788
vt 0.146602 1.009859
vt 0.269683 0.270158
vt 0.167870 0.321814
vt 0.182500 0.361996
vt 0.498706 0.707316
vt 0.402610 0.907570
vt 0.498679 0.187571
vt 0.496483 0.443561
vt 0.434094 0.463224
vt 0.431540 0.229571
vt 0.416853 0.474054
vt 0.231599 0.447487
vt 0.246150 0.242868
vt 0.499372 0.656314
vt 0.509141 0.495616
vt 0.502012 0.534860
vt 0.480650 0.493625
vt 0.441335 0.474595
vt 0.476570 0.443561
vt 0.156297 0.958608
vt 0.374333 0.868321
vt 0.313320 0.777404
vt 0.180047 0.820042
vt 0.430615 0.730599
vt 0.286952 0.667503
vt 0.159448 0.682711
vt 0.005931 0.734888
vt 0.037072 0.820419
vt 0.122575 0.366891
vt 0.165979 0.417837
vt 0.314167 0.157403
vt 0.360941 0.227297
vt 0.194737 0.209556
vt 0.156799 0.000234
vt 0.023602 0.008314
vt -0.117002 0.470826
vt 0.001905 0.939283
vt 0.760685 0.157551
vt 0.821604 0.121038
vt 0.820768 0.055648
vt 0.752420 0.003212
vt 0.785337 0.240478
vt 0.837542 0.221337
vt 0.363962 0.001213
vt 0.055835 0.224194
vt 0.001684 0.115485
vt 0.648486 0.051754
vt 0.753657 0.130895
vt 0.887158 0.235183
vt 0.902573 0.633399
vt 0.935835 0.156239
vt 0.856819 0.100804
vt 0.842046 0.066485
vt 0.246081 0.452035
vt 0.133503 0.529101
vt 0.147946 0.616583
vt 0.234860 0.575696
vt 0.086911 0.296333
vt 0.105357 0.338379
vt -0.044361 0.615116
vt -0.009429 0.687746
vt 0.424094 0.485425
vt 0.452106 0.562332
vt 0.519261 0.748884
vt 0.498606 0.774275
vt 0.499102 0.903658
vt 0.522719 0.910526
vt 0.542948 0.755842
vt 0.542948 0.880988
vt 0.471406 0.632973
vt 0.474941 0.531644
vt 0.144244 0.265546
vt 0.160654 0.299667
vt 0.704182 0.359817
vt 0.743752 0.394500
vt 0.761270 0.473480
vt 0.583625 0.212298
vt 0.110118 0.197760
vt 0.176172 -0.019525
vt 0.269683 0.270158
vt 0.167870 0.321814
vt 0.182500 0.361996
vt 0.431540 0.229571
vt 0.434094 0.463224
vt 0.246150 0.242868
vt 0.231599 0.447487
vt 0.416853 0.474054
vt 0.480650 0.493625
vt 0.441335 0.474595
vn -0.3488 0.9372 0.0006
vn -0.3088 0.0368 0.9504
vn -0.9885 0.1070 0.1067
vn -0.2747 0.2084 -0.9387
vn -0.3688 -0.9295 0.0019
vn -0.9964 0.0625 0.0565
vn -0.9987 0.0484 0.0145
vn -0.3550 0.9222 -0.1534
vn -0.3899 0.9086 0.1495
vn -0.0433 0.7748 0.6307
vn -0.3086 0.0403 0.9503
vn -0.1147 0.1582 -0.9807
vn -0.1770 0.1695 -0.9695
vn -0.4280 -0.9037 -0.0131
vn -0.2787 -0.1928 -0.9408
vn -0.0823 0.4515 0.8885
vn -0.6285 0.7506 0.2039
vn -0.9934 -0.1001 0.0567
vn -0.3503 -0.1998 -0.9151
vn -0.9742 -0.2007 0.1035
vn -0.4163 0.0172 0.9091
vn -0.8566 0.0461 0.5139
vn -0.8542 0.0500 0.5175
vn -0.9756 0.0326 0.2173
vn -0.3526 -0.1443 -0.9246
vn -0.1522 0.3061 0.9398
vn -0.2604 -0.1263 -0.9572
vn -0.4292 -0.8999 0.0779
vn -0.2193 0.0378 -0.9749
vn -0.0991 0.2025 -0.9743
vn -0.2883 0.0944 0.9529
vn 0.0033 0.8355 0.5495
vn -0.3669 0.9059 -0.2115
vn -0.3661 -0.9306 0.0004
vn -0.2631 0.1210 -0.9572
vn -0.3543 0.0990 0.9299
vn -0.3484 0.9373 0.0057
vn -0.2806 -0.1347 -0.9503
vn -0.4895 0.0352 0.8713
vn -0.4544 0.0161 0.8906
vn -0.9788 -0.2016 0.0372
vn -0.2836 -0.2023 -0.9374
vn -0.9947 -0.1006 0.0206
vn -0.4870 0.4046 0.7740
vn -0.3504 0.1244 -0.9283
vn -0.9972 0.0479 0.0572
vn -0.3488 0.2041 -0.9147
vn -0.9864 0.1068 0.1247
vn -0.3817 0.0344 0.9236
vn -0.4834 0.2510 0.8386
vn -0.5536 0.2068 0.8067
vn -0.9950 0.0902 0.0425
vn -0.1807 -0.9825 0.0446
vn 0.3488 0.9372 0.0006
vn 0.3088 0.0368 0.9504
vn 0.9885 0.1070 0.1067
vn 0.2747 0.2084 -0.9387
vn 0.3688 -0.9295 0.0019
vn 0.9964 0.0625 0.0565
vn 0.9987 0.0484 0.0145
vn 0.3550 0.9222 -0.1534
vn 0.3899 0.9086 0.1495
vn 0.0433 0.7748 0.6307
vn 0.3086 0.0403 0.9503
vn 0.1147 0.1582 -0.9807
vn 0.1770 0.1695 -0.9695
vn 0.4280 -0.9037 -0.0131
vn 0.2787 -0.1928 -0.9408
vn 0.0823 0.4515 0.8885
vn 0.6285 0.7506 0.2039
vn 0.9934 -0.1001 0.0567
vn 0.3503 -0.1998 -0.9151
vn 0.9742 -0.2007 0.1035
vn 0.4163 0.0172 0.9091
vn 0.8566 0.0461 0.5139
vn 0.8542 0.0500 0.5175
vn 0.9756 0.0326 0.2173
vn 0.3526 -0.1443 -0.9246
vn 0.1522 0.3061 0.9398
vn 0.2604 -0.1263 -0.9572
vn 0.4292 -0.8999 0.0779
vn 0.2193 0.0378 -0.9749
vn 0.0991 0.2025 -0.9743
vn 0.2883 0.0944 0.9529
vn -0.0033 0.8355 0.5495
vn 0.3669 0.9059 -0.2115
vn 0.3661 -0.9306 0.0004
vn 0.2631 0.1210 -0.9572
vn 0.3543 0.0990 0.9299
vn 0.3484 0.9373 0.0057
vn 0.2806 -0.1347 -0.9503
vn 0.4895 0.0352 0.8713
vn 0.4544 0.0161 0.8906
vn 0.9788 -0.2016 0.0372
vn 0.2836 -0.2023 -0.9374
vn 0.9947 -0.1006 0.0206
vn 0.4870 0.4046 0.7740
vn 0.3504 0.1244 -0.9283
vn 0.9972 0.0479 0.0572
vn 0.3488 0.2041 -0.9147
vn 0.9864 0.1068 0.1247
vn 0.3817 0.0344 0.9236
vn 0.4834 0.2510 0.8386
vn 0.5536 0.2068 0.8067
vn 0.9950 0.0902 0.0425
vn 0.1807 -0.9825 0.0446
usemtl Material
s off
f 27/1/1 6/2/1 3/3/1 23/4/1
f 45/5/2 23/4/2 3/3/2 41/6/2
f 43/7/3 6/2/3 1/8/3 42/9/3
f 44/10/4 25/11/4 56/12/4 106/13/4
f 26/14/5 59/15/5 55/16/5 24/17/5
f 5/18/6 2/19/6 7/20/6 8/21/6
f 41/6/7 3/3/7 6/2/7 43/7/7
f 25/22/8 1/8/8 6/2/8 27/1/8
f 8/23/9 7/24/9 9/25/9 10/26/9
f 29/27/10 8/23/10 10/26/10 31/28/10
f 26/14/11 5/18/11 8/21/11 29/29/11
f 22/30/12 53/31/12 61/32/12 28/33/12
f 28/34/13 61/35/13 65/36/13 30/37/13
f 32/38/14 69/39/14 72/40/14 33/41/14
f 30/37/15 65/36/15 69/39/15 32/38/15
f 31/28/16 10/26/16 12/42/16 33/43/16
f 10/26/17 9/25/17 11/44/17 12/42/17
f 38/45/18 13/46/18 15/47/18 37/48/18
f 40/49/19 34/50/19 75/51/19 98/52/19
f 37/48/20 15/47/20 14/53/20 36/54/20
f 39/55/21 35/56/21 13/46/21 38/45/21
f 20/57/22 21/58/22 18/59/22 19/60/22
f 17/61/23 16/62/23 21/58/23 20/57/23
f 45/5/24 35/56/24 46/63/24 47/64/24
f 36/65/25 14/66/25 34/50/25 40/49/25
f 68/67/26 31/28/26 33/43/26 72/68/26
f 9/69/27 30/37/27 32/38/27 11/70/27
f 11/70/28 32/38/28 33/41/28 12/71/28
f 7/72/29 28/34/29 30/37/29 9/69/29
f 2/73/30 22/30/30 28/33/30 7/74/30
f 59/15/31 26/14/31 29/29/31 64/75/31
f 64/76/32 29/27/32 31/28/32 68/67/32
f 56/77/33 25/22/33 27/1/33 60/78/33
f 5/18/34 26/14/34 24/17/34 4/79/34
f 42/80/35 1/81/35 25/11/35 44/10/35
f 107/82/36 54/83/36 23/4/36 45/5/36
f 60/78/37 27/1/37 23/4/37 54/83/37
f 2/73/38 36/65/38 40/49/38 22/30/38
f 55/84/39 99/85/39 39/86/39 24/87/39
f 24/87/40 39/88/40 38/89/40 4/90/40
f 5/18/41 37/48/41 36/54/41 2/19/41
f 22/30/42 40/49/42 98/52/42 53/31/42
f 4/79/43 38/45/43 37/48/43 5/18/43
f 107/82/44 45/5/44 47/64/44 111/91/44
f 14/66/45 42/80/45 44/10/45 34/50/45
f 13/46/46 41/6/46 43/7/46 15/47/46
f 34/50/47 44/10/47 106/13/47 75/51/47
f 15/47/48 43/7/48 42/9/48 14/53/48
f 35/56/49 45/5/49 41/6/49 13/46/49
f 115/92/50 112/93/50 46/63/50 48/94/50
f 112/93/51 111/91/51 47/64/51 46/63/51
f 35/56/52 39/95/52 48/94/52 46/63/52
f 39/95/53 99/96/53 115/92/53 48/94/53
f 88/97/54 84/98/54 51/99/54 58/100/54
f 110/101/55 104/102/55 51/99/55 84/98/55
f 108/103/56 105/104/56 49/105/56 58/100/56
f 109/106/57 106/13/57 56/12/57 86/107/57
f 87/108/58 85/109/58 55/16/58 59/15/58
f 57/110/59 63/111/59 62/112/59 50/113/59
f 104/102/60 108/103/60 58/100/60 51/99/60
f 86/114/61 88/97/61 58/100/61 49/105/61
f 63/115/62 67/116/62 66/117/62 62/118/62
f 90/119/63 92/120/63 67/116/63 63/115/63
f 87/108/64 90/121/64 63/111/64 57/110/64
f 83/122/65 89/123/65 61/32/65 53/31/65
f 89/124/66 91/125/66 65/36/66 61/35/66
f 93/126/67 94/127/67 72/40/67 69/39/67
f 91/125/68 93/126/68 69/39/68 65/36/68
f 92/120/69 94/128/69 71/129/69 67/116/69
f 67/116/70 71/129/70 70/130/70 66/117/70
f 101/131/71 100/132/71 76/133/71 73/134/71
f 103/135/72 98/52/72 75/51/72 95/136/72
f 100/132/73 97/137/73 74/138/73 76/133/73
f 102/139/74 101/131/74 73/134/74 96/140/74
f 81/141/75 80/142/75 79/143/75 82/144/75
f 78/145/76 81/141/76 82/144/76 77/146/76
f 110/101/77 114/147/77 113/148/77 96/140/77
f 97/149/78 103/135/78 95/136/78 74/150/78
f 68/67/79 72/68/79 94/128/79 92/120/79
f 66/151/80 70/152/80 93/126/80 91/125/80
f 70/152/81 71/153/81 94/127/81 93/126/81
f 62/154/82 66/151/82 91/125/82 89/124/82
f 50/155/83 62/156/83 89/123/83 83/122/83
f 59/15/84 64/75/84 90/121/84 87/108/84
f 64/76/85 68/67/85 92/120/85 90/119/85
f 56/77/86 60/78/86 88/97/86 86/114/86
f 57/110/87 52/157/87 85/109/87 87/108/87
f 105/158/88 109/106/88 86/107/88 49/159/88
f 107/82/89 110/101/89 84/98/89 54/83/89
f 60/78/90 54/83/90 84/98/90 88/97/90
f 50/155/91 83/122/91 103/135/91 97/149/91
f 55/84/92 85/160/92 102/161/92 99/85/92
f 85/160/93 52/162/93 101/163/93 102/164/93
f 57/110/94 50/113/94 97/137/94 100/132/94
f 83/122/95 53/31/95 98/52/95 103/135/95
f 52/157/96 57/110/96 100/132/96 101/131/96
f 107/82/97 111/91/97 114/147/97 110/101/97
f 74/150/98 95/136/98 109/106/98 105/158/98
f 73/134/99 76/133/99 108/103/99 104/102/99
f 95/136/100 75/51/100 106/13/100 109/106/100
f 76/133/101 74/138/101 105/104/101 108/103/101
f 96/140/102 73/134/102 104/102/102 110/101/102
f 115/92/103 116/165/103 113/148/103 112/93/103
f 112/93/104 113/148/104 114/147/104 111/91/104
f 96/140/105 113/148/105 116/165/105 102/166/105
f 102/166/106 116/165/106 115/92/106 99/96/106
o Cube.001
v -1.066398 1.246209 -1.068094
v -0.832838 -1.299270 -1.068094
v -0.834951 -1.468691 1.130345
v -0.679089 0.934793 1.305655
v -0.959169 1.251392 0.374062
v -1.006513 -2.439010 -1.338712
v -1.217506 0.094446 -1.068094
v -1.006258 -0.247612 1.270892
v -0.083590 -1.418584 -1.220572
v -0.143725 1.517729 -1.216564
v -0.128307 -2.849634 -1.461977
v -0.182631 0.094446 -1.489873
v -1.070214 -0.439219 -1.068094
v -0.940663 -0.636425 1.224043
v -0.144708 -0.484905 -1.386756
v -1.169174 0.462840 -1.068094
v -0.970239 0.342835 1.317741
v -0.170187 0.549686 -1.402455
v -0.834150 -1.404433 0.296516
v -0.381753 -2.663903 0.182982
v -1.086380 -0.117875 0.383755
v -0.989799 -0.561628 0.354676
v -1.045692 0.388351 0.412835
v 1.066398 1.246209 -1.068094
v 0.832838 -1.299270 -1.068094
v 0.000000 -1.459956 -1.273444
v 0.000000 1.611877 -1.268045
v 0.834951 -1.468691 1.130345
v 0.679089 0.934793 1.305655
v 0.959169 1.251392 0.374062
v 0.000000 -2.992018 -1.504719
v 1.006513 -2.439010 -1.338712
v 0.000000 -2.801321 1.112796
v 1.217506 0.094446 -1.068094
v 0.000000 0.094446 -1.636125
v 1.006258 -0.247612 1.270892
v 0.083590 -1.418584 -1.220572
v 0.143725 1.517729 -1.216564
v 0.000000 1.246550 1.356732
v 0.128307 -2.849634 -1.461977
v 0.182631 0.094446 -1.489873
v 1.070214 -0.439219 -1.068094
v 0.000000 -0.500747 -1.497251
v 0.940663 -0.636425 1.224043
v 0.144708 -0.484905 -1.386756
v 1.169174 0.462840 -1.068094
v 0.000000 0.579799 -1.518394
v 0.970239 0.342835 1.317741
v 0.170187 0.549686 -1.402455
v 0.834150 -1.404433 0.296516
v 0.381753 -2.663903 0.182982
v 1.086380 -0.117875 0.383755
v 0.000000 1.664002 0.236622
v 0.989799 -0.561628 0.354676
v 1.045692 0.388351 0.412835
vt 0.497181 0.644161
vt 0.525247 0.762143
vt 0.411012 0.714222
vt 0.399605 0.644030
vt 0.294586 0.691426
vt 0.357847 0.799029
vt 0.347065 0.819135
vt 0.272463 0.703832
vt 0.444089 0.427725
vt 0.336885 0.444853
vt 0.300965 0.299145
vt 0.420035 0.259770
vt 0.586655 0.871158
vt 0.595048 0.791425
vt 0.727311 0.905631
vt 0.236528 0.454733
vt 0.223627 0.452855
vt 0.240880 0.305704
vt 0.261744 0.317390
vt 0.259093 0.567887
vt 0.273613 0.639518
vt 0.245751 0.647457
vt 0.236887 0.571630
vt 0.470576 0.525912
vt 0.486387 0.579851
vt 0.393863 0.606746
vt 0.373890 0.550836
vt 0.542924 0.563417
vt 0.556804 0.644242
vt 0.509595 0.417259
vt 0.529655 0.510683
vt 0.492791 0.235711
vt 0.497181 0.644161
vt 0.399605 0.644030
vt 0.411012 0.714222
vt 0.525247 0.762143
vt 0.294586 0.691426
vt 0.357847 0.799029
vt 0.444089 0.427725
vt 0.420035 0.259770
vt 0.300965 0.299145
vt 0.336885 0.444853
vt 0.595048 0.791425
vt 0.236528 0.454733
vt 0.261744 0.317390
vt 0.259093 0.567887
vt 0.273613 0.639518
vt 0.470576 0.525912
vt 0.373890 0.550836
vt 0.393863 0.606746
vt 0.486387 0.579851
vt 0.542924 0.563417
vt 0.556804 0.644242
vt 0.509595 0.417259
vt 0.529655 0.510683
vn -0.9900 0.1157 0.0809
vn -0.5192 0.1887 -0.8335
vn -0.9706 -0.1437 0.1932
vn -0.3618 0.8610 0.3574
vn -0.2915 0.1550 -0.9439
vn -0.6126 -0.1784 -0.7700
vn -0.9691 -0.2431 0.0430
vn -0.3526 -0.1443 -0.9246
vn -0.0991 0.2025 -0.9743
vn 0.9288 0.3705 -0.0128
vn -0.2631 0.1210 -0.9572
vn -0.2806 -0.1347 -0.9503
vn -0.9743 -0.2252 0.0093
vn -0.6019 -0.1797 -0.7781
vn -0.3504 0.1244 -0.9283
vn -0.5967 0.1785 -0.7824
vn -0.9906 0.0977 0.0956
vn -0.9937 0.0631 0.0924
vn -0.9877 -0.1555 0.0153
vn -0.9795 -0.1953 0.0493
vn -0.3442 0.9387 -0.0193
vn -0.8840 -0.4461 0.1399
vn -0.9396 0.2520 0.2316
vn 0.9900 0.1157 0.0809
vn 0.5192 0.1887 -0.8335
vn 0.9706 -0.1437 0.1932
vn 0.3618 0.8610 0.3574
vn 0.2915 0.1550 -0.9439
vn 0.6126 -0.1784 -0.7700
vn 0.9691 -0.2431 0.0430
vn 0.3526 -0.1443 -0.9246
vn 0.0991 0.2025 -0.9743
vn -0.9288 0.3705 -0.0128
vn 0.2631 0.1210 -0.9572
vn 0.2806 -0.1347 -0.9503
vn 0.9743 -0.2252 0.0093
vn 0.6019 -0.1797 -0.7781
vn 0.3504 0.1244 -0.9283
vn 0.5967 0.1785 -0.7824
vn 0.9906 0.0977 0.0956
vn 0.9937 0.0631 0.0924
vn 0.9877 -0.1555 0.0153
vn 0.9795 -0.1953 0.0493
vn 0.3442 0.9387 -0.0193
vn 0.8840 -0.4461 0.1399
vn 0.9396 0.2520 0.2316
usemtl Material.001
s off
f 139/167/107 121/168/107 117/169/107 132/170/107
f 134/171/108 126/172/108 143/173/108 163/174/108
f 135/175/109 118/176/109 122/177/109 136/178/109
f 169/179/110 121/168/110 120/180/110 155/181/110
f 125/182/111 142/183/111 147/184/111 127/185/111
f 131/186/112 128/187/112 151/188/112 159/189/112
f 138/190/113 137/191/113 123/192/113 129/193/113
f 129/193/114 123/192/114 128/187/114 131/186/114
f 118/176/115 125/182/115 127/185/115 122/177/115
f 143/173/116 126/172/116 169/179/116 155/181/116
f 132/170/117 117/169/117 126/172/117 134/171/117
f 118/176/118 129/193/118 131/186/118 125/182/118
f 135/175/119 138/190/119 129/193/119 118/176/119
f 125/182/120 131/186/120 159/189/120 142/183/120
f 123/192/121 132/170/121 134/171/121 128/187/121
f 128/187/122 134/171/122 163/174/122 151/188/122
f 137/191/123 139/167/123 132/170/123 123/192/123
f 124/194/124 133/195/124 139/167/124 137/191/124
f 119/196/125 130/197/125 138/190/125 135/175/125
f 130/197/126 124/194/126 137/191/126 138/190/126
f 126/172/127 117/169/127 121/168/127 169/179/127
f 119/196/128 135/175/128 136/178/128 149/198/128
f 133/195/129 120/180/129 121/168/129 139/167/129
f 171/199/130 162/200/130 140/201/130 146/202/130
f 165/203/131 163/174/131 143/173/131 154/204/131
f 166/205/132 167/206/132 148/207/132 141/208/132
f 169/179/133 155/181/133 145/209/133 146/202/133
f 153/210/134 156/211/134 147/184/134 142/183/134
f 161/212/135 159/189/135 151/188/135 157/213/135
f 170/214/136 158/215/136 150/216/136 168/217/136
f 158/215/137 161/212/137 157/213/137 150/216/137
f 141/208/138 148/207/138 156/211/138 153/210/138
f 143/173/139 155/181/139 169/179/139 154/204/139
f 162/200/140 165/203/140 154/204/140 140/201/140
f 141/208/141 153/210/141 161/212/141 158/215/141
f 166/205/142 141/208/142 158/215/142 170/214/142
f 153/210/143 142/183/143 159/189/143 161/212/143
f 150/216/144 157/213/144 165/203/144 162/200/144
f 157/213/145 151/188/145 163/174/145 165/203/145
f 168/217/146 150/216/146 162/200/146 171/199/146
f 152/218/147 168/217/147 171/199/147 164/219/147
f 144/220/148 166/205/148 170/214/148 160/221/148
f 160/221/149 170/214/149 168/217/149 152/218/149
f 154/204/150 169/179/150 146/202/150 140/201/150
f 144/220/151 149/198/151 167/206/151 166/205/151
f 164/219/152 171/199/152 146/202/152 145/209/152
